<svg width="20" height="22" viewBox="0 0 20 22" fill="none" xmlns="http://www.w3.org/2000/svg">
<g filter="url(#filter0_d_50_1750)">
<path fill-rule="evenodd" clip-rule="evenodd" d="M12.5 4C12.5 5.38071 11.3807 6.5 10 6.5C8.61929 6.5 7.5 5.38071 7.5 4C7.5 2.61929 8.61929 1.5 10 1.5C11.3807 1.5 12.5 2.61929 12.5 4ZM14 4C14 6.20914 12.2091 8 10 8C7.79086 8 6 6.20914 6 4C6 1.79086 7.79086 0 10 0C12.2091 0 14 1.79086 14 4ZM8 9.25C5.92893 9.25 4.25 10.9289 4.25 13V14H5.75V13C5.75 11.7574 6.75736 10.75 8 10.75H12C13.2426 10.75 14.25 11.7574 14.25 13V14H15.75V13C15.75 10.9289 14.0711 9.25 12 9.25H8Z" fill="white"/>
</g>
<defs>
<filter id="filter0_d_50_1750" x="0.25" y="0" width="19.5" height="22" filterUnits="userSpaceOnUse" color-interpolation-filters="sRGB">
<feFlood flood-opacity="0" result="BackgroundImageFix"/>
<feColorMatrix in="SourceAlpha" type="matrix" values="0 0 0 0 0 0 0 0 0 0 0 0 0 0 0 0 0 0 127 0" result="hardAlpha"/>
<feOffset dy="4"/>
<feGaussianBlur stdDeviation="2"/>
<feComposite in2="hardAlpha" operator="out"/>
<feColorMatrix type="matrix" values="0 0 0 0 0 0 0 0 0 0 0 0 0 0 0 0 0 0 0.25 0"/>
<feBlend mode="normal" in2="BackgroundImageFix" result="effect1_dropShadow_50_1750"/>
<feBlend mode="normal" in="SourceGraphic" in2="effect1_dropShadow_50_1750" result="shape"/>
</filter>
</defs>
</svg>
